<?xml version="1.0" encoding="UTF-8"?>
<!DOCTYPE svg PUBLIC "-//W3C//DTD SVG 1.1//EN" "http://www.w3.org/Graphics/SVG/1.1/DTD/svg11.dtd">
<svg xmlns="http://www.w3.org/2000/svg" version="1.1" width="512px" height="512px" style="shape-rendering:geometricPrecision; text-rendering:geometricPrecision; image-rendering:optimizeQuality; fill-rule:evenodd; clip-rule:evenodd" xmlns:xlink="http://www.w3.org/1999/xlink">
<g><path style="opacity:0.95" fill="#f66205" d="M 327.5,5.5 C 336.657,4.48923 340.49,8.48923 339,17.5C 333.776,21.7229 328.276,25.5563 322.5,29C 395.642,53.1425 446.475,100.976 475,172.5C 498.676,241.719 493.01,308.385 458,372.5C 416.119,440.387 355.286,478.887 275.5,488C 267.167,488.667 258.833,488.667 250.5,488C 244.727,482.101 245.394,477.101 252.5,473C 336.151,470.444 399.984,433.944 444,363.5C 483.263,290.817 483.263,218.15 444,145.5C 414.417,96.5907 372.417,63.2573 318,45.5C 320.413,50.9755 323.413,56.3088 327,61.5C 328.268,71.5686 324.102,75.0686 314.5,72C 307.293,61.7559 300.46,51.2559 294,40.5C 291.247,36.6665 290.914,32.6665 293,28.5C 304.651,20.934 316.151,13.2673 327.5,5.5 Z"/></g>
<g><path style="opacity:0.95" fill="#f66205" d="M 233.5,20.5 C 242.173,20.3336 250.84,20.5002 259.5,21C 264.684,25.7085 264.684,30.3751 259.5,35C 181.372,37.1413 119.538,69.6413 74,132.5C 32.5916,198.066 25.9249,267.066 54,339.5C 83.4511,403.479 131.951,445.479 199.5,465.5C 199.833,465.167 200.167,464.833 200.5,464.5C 196.362,458.556 193.029,452.223 190.5,445.5C 191.511,438.334 195.511,435.834 202.5,438C 210.706,449.576 218.539,461.409 226,473.5C 227.443,478.212 226.277,482.045 222.5,485C 212.5,491.333 202.5,497.667 192.5,504C 182.921,507.736 178.421,504.569 179,494.5C 179.465,493.069 180.299,491.903 181.5,491C 186.167,488 190.833,485 195.5,482C 105.975,454.81 49.4751,395.976 26,305.5C 9.55419,217.85 33.0542,143.016 96.5,81C 135.653,46.2215 181.32,26.0548 233.5,20.5 Z"/></g>
<g><path style="opacity:0.953" fill="#f66205" d="M 365.5,127.5 C 375.33,125.829 379.163,129.829 377,139.5C 367.651,169.376 358.818,199.376 350.5,229.5C 366.17,229.333 381.837,229.5 397.5,230C 401.861,232.226 403.361,235.726 402,240.5C 367.868,285.29 333.034,329.457 297.5,373C 290.718,374.782 286.718,372.282 285.5,365.5C 296.772,334.018 308.438,302.684 320.5,271.5C 304.844,270.667 289.177,270.167 273.5,270C 268.931,267.459 267.431,263.625 269,258.5C 300.688,214.448 332.854,170.781 365.5,127.5 Z M 346.5,181.5 C 341.805,199.277 336.638,216.944 331,234.5C 330.045,239.423 331.879,242.923 336.5,245C 350.167,245.333 363.833,245.667 377.5,246C 359.303,269.021 340.969,291.855 322.5,314.5C 328.027,298.42 333.861,282.42 340,266.5C 341.262,262.091 340.428,258.257 337.5,255C 322.5,254.667 307.5,254.333 292.5,254C 310.399,229.676 328.399,205.51 346.5,181.5 Z"/></g>
<g><path style="opacity:0.95" fill="#f66205" d="M 168.5,137.5 C 170.989,137.298 173.323,137.798 175.5,139C 200.087,176.011 218.92,215.844 232,258.5C 238.194,278.366 238.861,298.366 234,318.5C 219.916,351.133 195.083,365.633 159.5,362C 124.09,353.423 105.757,330.923 104.5,294.5C 106.305,265.918 113.138,238.584 125,212.5C 136.026,188.176 148.693,164.843 163,142.5C 164.73,140.598 166.563,138.931 168.5,137.5 Z M 169.5,162.5 C 170.496,162.414 171.329,162.748 172,163.5C 191.102,196.038 206.102,230.371 217,266.5C 219.421,276.191 220.921,286.024 221.5,296C 218.635,326.865 201.801,343.699 171,346.5C 139.964,343.63 123.13,326.63 120.5,295.5C 122.941,265.676 130.775,237.343 144,210.5C 152.271,194.288 160.771,178.288 169.5,162.5 Z"/></g>
</svg>
