<?xml version="1.0" standalone="no"?>
<!DOCTYPE svg PUBLIC "-//W3C//DTD SVG 20010904//EN"
 "http://www.w3.org/TR/2001/REC-SVG-20010904/DTD/svg10.dtd">
<svg version="1.0" xmlns="http://www.w3.org/2000/svg"
 width="512.000000pt" height="512.000000pt" viewBox="0 0 512.000000 512.000000"
 preserveAspectRatio="xMidYMid meet">
<metadata>
Created by potrace 1.16, written by Peter Selinger 2001-2019
</metadata>
<g transform="translate(0.000000,512.000000) scale(0.100000,-0.100000)"
fill="#f66205" stroke="none">
<path d="M2496 5094 c-21 -21 -26 -36 -26 -74 0 -38 5 -53 26 -74 21 -21 36
-26 74 -26 38 0 53 5 74 26 21 21 26 36 26 74 0 38 -5 53 -26 74 -21 21 -36
26 -74 26 -38 0 -53 -5 -74 -26z"/>
<path d="M1977 5031 c-295 -97 -566 -267 -778 -488 -255 -265 -426 -594 -502
-967 -19 -97 -22 -142 -22 -356 0 -214 3 -259 22 -356 76 -373 242 -693 500
-964 54 -57 83 -95 80 -104 -3 -8 -139 -249 -301 -536 -262 -461 -296 -526
-296 -564 0 -62 35 -96 99 -96 25 1 192 31 371 69 239 50 327 65 332 56 4 -6
61 -164 128 -351 88 -247 126 -344 143 -356 32 -26 105 -24 134 3 12 12 170
282 350 600 180 318 330 578 333 578 3 0 153 -260 333 -578 180 -318 338 -588
351 -600 33 -31 105 -29 137 3 17 16 60 125 138 347 63 178 119 333 125 345
11 21 12 21 336 -47 179 -37 346 -68 371 -69 64 0 99 34 99 96 0 39 -33 102
-295 564 -163 286 -298 527 -301 535 -4 10 23 46 79 105 258 271 424 591 500
964 19 97 22 141 22 356 0 214 -3 259 -23 356 -75 372 -245 702 -501 967 -157
163 -312 276 -524 383 -154 77 -371 149 -421 140 -50 -9 -81 -48 -81 -101 0
-66 25 -86 163 -130 602 -193 1023 -667 1159 -1305 28 -132 25 -508 -5 -644
-154 -691 -667 -1196 -1350 -1331 -175 -35 -449 -35 -624 0 -608 120 -1099
547 -1293 1127 -69 207 -79 276 -79 538 0 262 10 331 79 538 175 522 581 916
1112 1081 121 38 148 61 148 127 0 34 -6 49 -26 70 -41 41 -86 40 -222 -5z
m-435 -3415 c217 -141 499 -246 750 -279 49 -7 89 -16 90 -21 3 -13 -536 -956
-543 -948 -3 4 -48 126 -99 272 -106 301 -117 320 -189 320 -25 0 -161 -25
-301 -54 -140 -30 -256 -53 -257 -52 -3 2 459 816 463 816 2 0 41 -24 86 -54z
m2378 -356 c126 -222 228 -405 227 -406 -1 -1 -117 22 -257 52 -140 29 -276
53 -301 54 -72 0 -83 -19 -189 -320 -51 -146 -96 -268 -99 -272 -6 -7 -542
925 -545 947 0 5 40 15 91 22 255 34 563 150 763 287 36 25 68 44 73 43 4 -1
111 -184 237 -407z"/>
<path d="M2345 4710 c-107 -17 -258 -60 -360 -104 -198 -83 -344 -186 -501
-349 -200 -207 -327 -447 -390 -737 -15 -68 -19 -127 -19 -300 0 -234 9 -299
66 -473 74 -226 187 -406 368 -588 221 -221 456 -349 761 -415 122 -27 478
-27 600 0 307 67 539 194 761 415 221 222 348 454 415 761 27 122 27 478 0
600 -67 307 -194 539 -415 761 -218 218 -440 341 -740 411 -99 23 -441 34
-546 18z m445 -217 c530 -88 963 -521 1054 -1052 34 -197 16 -441 -46 -626
-107 -318 -335 -585 -639 -744 -303 -159 -677 -187 -1005 -76 -369 126 -686
444 -810 812 -87 259 -87 567 1 828 58 176 177 364 317 502 304 299 708 427
1128 356z"/>
<path d="M2523 4185 c-29 -12 -47 -43 -162 -272 l-129 -259 -254 -38 c-139
-21 -270 -42 -290 -47 -49 -13 -78 -51 -78 -102 0 -40 6 -47 207 -249 l208
-208 -43 -258 c-51 -311 -52 -324 -13 -363 52 -51 75 -44 354 100 l248 129
247 -129 c278 -144 301 -151 353 -100 39 39 38 52 -13 363 l-43 258 208 208
c201 202 207 209 207 249 0 51 -29 89 -78 102 -20 5 -151 27 -290 47 l-254 38
-129 259 c-119 237 -133 259 -164 273 -42 17 -51 17 -92 -1z m139 -520 c57
-113 96 -180 113 -191 15 -10 99 -27 212 -45 104 -16 194 -30 202 -31 7 -2
-49 -63 -125 -137 -77 -74 -144 -144 -151 -155 -18 -31 -16 -74 17 -265 16
-96 28 -177 26 -178 -2 -2 -82 37 -178 87 -118 60 -186 90 -208 90 -22 0 -90
-30 -208 -91 -96 -49 -176 -89 -178 -87 -2 2 10 83 26 179 33 191 35 233 17
265 -7 12 -75 81 -151 155 -78 75 -133 135 -125 137 8 1 98 15 202 31 113 18
197 35 212 45 17 11 56 78 113 191 48 96 89 175 92 175 3 0 44 -79 92 -175z"/>
</g>
</svg>
