<?xml version="1.0" encoding="UTF-8"?>
<!DOCTYPE svg PUBLIC "-//W3C//DTD SVG 1.1//EN" "http://www.w3.org/Graphics/SVG/1.1/DTD/svg11.dtd">
<svg xmlns="http://www.w3.org/2000/svg" version="1.1" width="512px" height="512px" style="shape-rendering:geometricPrecision; text-rendering:geometricPrecision; image-rendering:optimizeQuality; fill-rule:evenodd; clip-rule:evenodd" xmlns:xlink="http://www.w3.org/1999/xlink">
<g><path style="opacity:0.931" fill="#ffffff" d="M 259.5,-0.5 C 266.833,-0.5 274.167,-0.5 281.5,-0.5C 306.742,5.40826 322.408,21.0749 328.5,46.5C 364.754,56.2599 383.92,79.9266 386,117.5C 388.653,114.806 391.82,113.973 395.5,115C 409.612,127.463 419.279,142.796 424.5,161C 431.22,159.8 438.053,158.966 445,158.5C 453.755,157.093 457.922,160.76 457.5,169.5C 457.614,189.683 450.281,206.517 435.5,220C 429.561,223.803 423.227,226.803 416.5,229C 419.79,231.614 422.29,234.781 424,238.5C 424.656,246.175 421.156,249.341 413.5,248C 402.665,237.081 389.665,230.081 374.5,227C 366.112,226.169 357.779,226.503 349.5,228C 341.987,230.599 334.654,233.432 327.5,236.5C 319.598,235.264 317.431,230.931 321,223.5C 335.984,213.628 352.484,209.128 370.5,210C 362.213,197.801 358.38,184.301 359,169.5C 348.067,172.232 344.4,168.232 348,157.5C 368.148,141.046 374.148,120.379 366,95.5C 358.523,79.2554 346.19,68.5887 329,63.5C 327.928,74.7376 323.761,84.571 316.5,93C 307.884,94.7172 304.051,91.2172 305,82.5C 318.231,60.0541 315.065,40.2207 295.5,23C 273.731,10.6037 254.231,13.4371 237,31.5C 226.093,47.9863 225.76,64.653 236,81.5C 236.929,85.2441 236.429,88.7441 234.5,92C 229.962,94.3034 225.795,93.8034 222,90.5C 216.955,82.5329 213.788,73.8662 212.5,64.5C 207,65.5803 201.667,67.247 196.5,69.5C 187.736,66.1692 186.403,61.0026 192.5,54C 199.169,50.7211 206.169,48.5544 213.5,47.5C 218.964,22.0365 234.297,6.03652 259.5,-0.5 Z M 391.5,134.5 C 415.047,159.917 415.381,185.584 392.5,211.5C 376.07,195.778 371.57,177.111 379,155.5C 382.597,148.091 386.763,141.091 391.5,134.5 Z M 413.5,212.5 C 419.929,202.052 424.095,190.718 426,178.5C 430.545,176.698 435.211,175.364 440,174.5C 440.14,189.054 434.306,200.554 422.5,209C 419.691,210.741 416.691,211.908 413.5,212.5 Z"/></g>
<g><path style="opacity:0.932" fill="#ffffff" d="M 102.5,66.5 C 119.719,65.4421 135.719,69.2754 150.5,78C 154.299,80.7969 157.799,83.9636 161,87.5C 162.776,84.0589 164.943,80.8922 167.5,78C 176.496,75.9988 180.329,79.4988 179,88.5C 165.978,115.723 170.978,139.057 194,158.5C 196.307,168.193 192.474,172.027 182.5,170C 175.601,164.099 169.768,157.266 165,149.5C 164.282,148.549 163.449,148.383 162.5,149C 145.542,166.453 141.376,186.619 150,209.5C 150.481,211.478 151.647,212.811 153.5,213.5C 175.032,207.803 195.698,209.97 215.5,220C 222.806,223.569 224.139,228.569 219.5,235C 217.801,235.958 215.967,236.458 214,236.5C 205.919,232.967 197.586,229.967 189,227.5C 170.301,223.938 153.468,227.938 138.5,239.5C 146.486,257.698 146.486,275.865 138.5,294C 144.19,293.998 149.857,293.498 155.5,292.5C 164.414,295.749 165.748,300.915 159.5,308C 131.303,308.834 110.803,321.668 98,346.5C 90.7634,364.052 90.93,381.552 98.5,399C 96.0127,407.161 91.1794,408.995 84,404.5C 74.4281,383.334 74.0947,362.001 83,340.5C 86.467,334.562 89.6337,328.562 92.5,322.5C 69.4894,317.993 54.9894,304.326 49,281.5C 46.8296,272.943 46.163,264.277 47,255.5C 48.1667,254.333 49.3333,253.167 50.5,252C 60.0195,250.942 69.3528,251.775 78.5,254.5C 82.9814,240.535 89.8147,227.869 99,216.5C 101.869,213.296 105.035,210.463 108.5,208C 110.833,207.333 113.167,207.333 115.5,208C 121.082,213.077 126.082,218.577 130.5,224.5C 132.968,223.197 135.301,221.697 137.5,220C 124.422,192.125 127.422,166.125 146.5,142C 122.633,137.133 107.466,122.966 101,99.5C 99.308,91.9137 98.1413,84.247 97.5,76.5C 97.6693,72.2709 99.336,68.9376 102.5,66.5 Z M 114.5,82.5 C 127.987,83.6618 139.487,88.9952 149,98.5C 151.777,101.718 153.777,105.385 155,109.5C 155.297,114.691 155.797,119.857 156.5,125C 138.055,126.403 125.222,117.903 118,99.5C 116.127,93.9699 114.961,88.3033 114.5,82.5 Z M 110.5,227.5 C 129.926,246.482 133.426,268.148 121,292.5C 118.374,296.956 115.207,300.956 111.5,304.5C 94.1252,287.125 90.2919,267.125 100,244.5C 103.522,238.777 107.022,233.111 110.5,227.5 Z M 62.5,268.5 C 67.7092,268.107 72.8759,269.107 78,271.5C 79.7071,283.458 83.8738,294.458 90.5,304.5C 79.3847,302.256 71.5514,295.59 67,284.5C 65.1604,279.126 63.6604,273.793 62.5,268.5 Z"/></g>
<g><path style="opacity:0.931" fill="#ffffff" d="M 288.5,124.5 C 291.32,124.248 293.986,124.748 296.5,126C 323.84,152.22 326.673,180.72 305,211.5C 301.799,215.036 298.299,218.203 294.5,221C 247.632,224.172 220.466,202.672 213,156.5C 212.333,150.5 212.333,144.5 213,138.5C 213.935,135.898 215.768,134.398 218.5,134C 237.001,133.267 254.334,137.434 270.5,146.5C 275.449,138.226 281.449,130.893 288.5,124.5 Z M 290.5,145.5 C 292.017,145.511 293.184,146.177 294,147.5C 304.463,161.192 306.129,175.858 299,191.5C 296.26,179.023 291.093,167.689 283.5,157.5C 285.845,153.472 288.178,149.472 290.5,145.5 Z M 228.5,150.5 C 263.224,152.557 281.557,170.891 283.5,205.5C 249.549,202.883 231.216,184.549 228.5,150.5 Z"/></g>
<g><path style="opacity:0.929" fill="#ffffff" d="M 284.5,511.5 C 275.167,511.5 265.833,511.5 256.5,511.5C 222.238,505.117 197.071,486.45 181,455.5C 179.864,452.904 179.031,450.237 178.5,447.5C 151.826,454.246 127.493,449.413 105.5,433C 101.432,425.518 103.432,420.684 111.5,418.5C 118.35,422.495 125.35,426.329 132.5,430C 145.625,434.983 158.958,435.65 172.5,432C 173.022,431.439 173.355,430.772 173.5,430C 170.505,415.274 171.338,400.774 176,386.5C 181.695,382.281 186.362,383.281 190,389.5C 181.929,430.323 195.096,462.156 229.5,485C 269.305,504.24 304.472,497.74 335,465.5C 352.106,442.479 357.773,416.813 352,388.5C 354.763,383.913 358.597,382.746 363.5,385C 365.487,386.319 366.654,388.152 367,390.5C 367.945,394.114 368.612,397.781 369,401.5C 369.273,411.756 369.44,421.923 369.5,432C 397.824,438.116 420.657,429.616 438,406.5C 449.438,388.174 451.438,368.841 444,348.5C 436.358,355.238 427.525,359.738 417.5,362C 422.252,368.583 425.252,375.916 426.5,384C 424.115,392.446 419.282,394.279 412,389.5C 405.931,366.033 390.764,353.199 366.5,351C 362.176,346.793 361.842,342.46 365.5,338C 375.093,335.516 384.26,336.683 393,341.5C 394.267,318.273 405.433,301.94 426.5,292.5C 426.833,290.833 427.167,289.167 427.5,287.5C 426.117,280.546 425.617,273.546 426,266.5C 430.667,261.167 435.333,261.167 440,266.5C 441.957,273.368 443.124,280.368 443.5,287.5C 456.445,282.963 462.779,287.463 462.5,301C 462.211,312.447 459.877,323.447 455.5,334C 472.387,372.441 465.387,405.774 434.5,434C 412.951,449.31 389.285,453.976 363.5,448C 348.537,483.462 322.204,504.629 284.5,511.5 Z M 443.5,303.5 C 444.552,303.351 445.552,303.517 446.5,304C 445.514,328.153 433.181,342.653 409.5,347.5C 407.944,331.32 413.944,318.82 427.5,310C 432.819,307.497 438.152,305.331 443.5,303.5 Z"/></g>
<g><path style="opacity:0.928" fill="#ffffff" d="M 267.5,295.5 C 269.857,295.337 272.19,295.503 274.5,296C 296.105,314.476 302.938,337.309 295,364.5C 293.005,369.16 290.505,373.494 287.5,377.5C 294.876,380.604 301.709,384.604 308,389.5C 311.235,398.594 308.068,402.761 298.5,402C 287.813,393.884 275.813,390.884 262.5,393C 254.632,395.524 247.132,398.691 240,402.5C 231.233,400.627 229.4,395.961 234.5,388.5C 240.44,383.696 247.107,380.196 254.5,378C 239.499,357.123 238.666,335.623 252,313.5C 256.485,306.828 261.652,300.828 267.5,295.5 Z M 270.5,315.5 C 286.271,334.32 286.438,353.32 271,372.5C 254.537,353.729 254.37,334.729 270.5,315.5 Z"/></g>
</svg>
