<?xml version="1.0" standalone="no"?>
<!DOCTYPE svg PUBLIC "-//W3C//DTD SVG 20010904//EN"
 "http://www.w3.org/TR/2001/REC-SVG-20010904/DTD/svg10.dtd">
<svg version="1.0" xmlns="http://www.w3.org/2000/svg"
 width="512.000000pt" height="512.000000pt" viewBox="0 0 512.000000 512.000000"
 preserveAspectRatio="xMidYMid meet">

<g transform="translate(0.000000,512.000000) scale(0.100000,-0.100000)"
fill="#FF8D2A" stroke="none">
<path d="M1483 5025 c-177 -48 -317 -195 -354 -372 -24 -118 5 -258 76 -363
33 -49 33 -50 12 -54 -109 -20 -185 -43 -257 -78 -69 -34 -103 -60 -176 -133
-106 -106 -98 -91 -354 -640 -202 -433 -209 -454 -175 -556 26 -77 103 -152
180 -175 106 -30 202 -5 277 73 33 34 156 287 388 798 18 39 19 22 19 -755 l1
-795 -64 -33 c-76 -39 -162 -126 -200 -200 -74 -146 -73 -303 1 -445 15 -28
29 -55 31 -58 7 -14 -94 13 -133 35 -46 27 -90 85 -105 137 -6 19 -10 174 -10
350 0 377 -3 393 -84 475 -114 113 -278 113 -392 -1 -85 -85 -86 -91 -82 -563
4 -396 4 -397 30 -474 41 -123 92 -204 187 -298 113 -112 218 -166 394 -204
l27 -6 0 -305 0 -305 560 0 560 0 0 304 c0 282 1 305 18 309 9 3 42 11 72 17
30 7 98 32 150 57 81 39 107 58 185 137 73 73 99 108 133 176 75 151 75 157
80 598 4 466 3 472 -82 557 -56 57 -122 85 -196 85 -101 0 -207 -66 -252 -158
-22 -46 -23 -55 -28 -402 -4 -311 -7 -359 -22 -386 -22 -41 -72 -90 -109 -110
-31 -16 -122 -36 -117 -25 2 3 16 30 31 58 74 142 75 299 1 445 -33 66 -121
158 -179 189 -25 13 -44 27 -43 31 2 4 224 166 493 360 270 194 679 489 910
655 l420 302 868 1 867 0 0 80 0 80 -320 0 -320 0 0 800 0 800 -87 0 -88 0
-549 -200 c-303 -110 -552 -200 -555 -201 -3 0 246 -85 554 -188 l560 -188 3
-411 2 -412 -493 0 -493 0 -429 -310 -430 -309 -11 37 c-24 79 -61 131 -180
253 l-124 126 0 229 0 229 63 18 c210 61 418 219 547 418 63 98 261 545 267
604 9 84 -18 157 -80 219 -80 79 -175 103 -283 71 -94 -28 -121 -62 -248 -313
-125 -247 -170 -310 -272 -377 -30 -20 -58 -35 -60 -32 -3 3 4 23 15 46 91
177 56 393 -86 542 -118 124 -300 177 -460 134z m268 -186 c67 -36 98 -68 137
-143 22 -43 26 -64 26 -136 1 -78 -2 -90 -33 -148 -38 -70 -70 -100 -145 -140
-43 -22 -64 -26 -136 -26 -72 0 -93 4 -136 26 -75 40 -107 70 -145 140 -31 58
-34 70 -33 148 0 100 24 160 89 225 100 100 249 121 376 54z m1011 3 c56 -56
52 -79 -65 -334 -125 -273 -152 -319 -240 -414 -120 -129 -276 -216 -450 -250
l-87 -17 0 -331 0 -331 140 -140 c152 -152 184 -201 178 -277 -3 -40 -6 -44
-118 -125 l-115 -83 -3 107 -3 108 -142 143 -142 142 -97 0 -98 0 0 -424 0
-425 -117 -84 -118 -85 -3 909 -2 910 -107 -3 -107 -3 -230 -499 c-197 -427
-235 -502 -261 -518 -77 -46 -175 9 -175 97 0 27 372 836 418 910 60 96 198
198 317 236 27 8 157 14 400 19 397 8 418 11 548 76 178 89 249 173 397 464
128 254 136 263 214 255 26 -2 49 -13 68 -33z m1478 -191 l0 -219 -317 105
c-175 59 -313 108 -308 110 6 2 143 52 305 112 162 60 301 109 308 110 9 1 12
-49 12 -218z m-2400 -2097 l0 -132 -67 -49 c-38 -27 -74 -53 -80 -57 -10 -6
-13 49 -13 261 l0 268 80 -80 80 -80 0 -131z m-1396 -433 l31 -31 5 -353 c5
-316 7 -357 24 -397 43 -102 115 -179 207 -223 88 -41 354 -77 571 -77 196 0
451 33 551 70 83 31 158 104 204 198 l38 76 5 353 5 353 33 32 c28 28 39 33
82 33 43 0 54 -5 82 -33 l33 -32 0 -388 c0 -427 -1 -434 -64 -557 -82 -159
-226 -256 -446 -298 l-120 -23 -3 -292 -2 -292 -400 0 -400 0 -2 292 -3 292
-120 23 c-227 44 -367 140 -453 310 -59 118 -63 163 -60 575 l3 356 25 27 c33
36 57 46 104 41 27 -3 49 -14 70 -35z m987 -322 c67 -36 98 -68 137 -143 22
-43 26 -64 26 -136 1 -78 -2 -90 -33 -148 -38 -70 -70 -100 -145 -140 -43 -22
-64 -26 -136 -26 -72 0 -93 4 -136 26 -75 40 -107 70 -145 140 -31 58 -34 70
-33 148 0 100 24 160 89 225 100 100 249 121 376 54z"/>
<path d="M3440 3040 l0 -80 80 0 80 0 0 80 0 80 -80 0 -80 0 0 -80z"/>
<path d="M3760 3040 l0 -80 80 0 80 0 0 80 0 80 -80 0 -80 0 0 -80z"/>
<path d="M4080 3040 l0 -80 80 0 80 0 0 80 0 80 -80 0 -80 0 0 -80z"/>
<path d="M2826 2304 c-34 -11 -64 -31 -102 -68 -85 -86 -86 -92 -82 -564 4
-396 4 -397 30 -474 41 -123 92 -204 187 -298 113 -112 218 -166 394 -204 l27
-6 0 -305 0 -305 560 0 560 0 0 304 c0 282 1 305 18 309 9 3 42 11 72 17 30 7
98 32 150 57 81 39 107 58 185 137 73 73 99 108 133 176 75 151 75 157 80 598
4 466 3 472 -82 557 -56 57 -122 85 -196 85 -101 0 -207 -66 -252 -158 -22
-46 -23 -55 -28 -402 -4 -311 -7 -359 -22 -386 -22 -41 -72 -90 -109 -110 -31
-16 -122 -36 -117 -25 2 3 16 30 31 58 144 275 -5 609 -308 688 -162 42 -340
-10 -458 -134 -147 -154 -177 -368 -80 -554 15 -28 29 -55 31 -58 7 -14 -94
13 -133 35 -46 27 -90 85 -105 137 -6 19 -10 174 -10 350 0 377 -3 393 -84
475 -80 79 -178 102 -290 68z m178 -183 l31 -31 5 -353 c5 -316 7 -357 24
-397 43 -102 115 -179 207 -223 88 -41 354 -77 571 -77 196 0 451 33 551 70
83 31 158 104 204 198 l38 76 5 353 5 353 33 32 c28 28 39 33 82 33 43 0 54
-5 82 -33 l33 -32 0 -388 c0 -427 -1 -434 -64 -557 -82 -159 -226 -256 -446
-298 l-120 -23 -3 -292 -2 -292 -400 0 -400 0 -2 292 -3 292 -120 23 c-227 44
-367 140 -453 310 -59 118 -63 163 -60 575 l3 356 25 27 c33 36 57 46 104 41
27 -3 49 -14 70 -35z m987 -322 c67 -36 98 -68 137 -143 22 -43 26 -64 26
-136 1 -78 -2 -90 -33 -148 -38 -70 -70 -100 -145 -140 -43 -22 -64 -26 -136
-26 -72 0 -93 4 -136 26 -75 40 -107 70 -145 140 -31 58 -34 70 -33 148 0 100
24 160 89 225 100 100 249 121 376 54z"/>
</g>
</svg>
