<?xml version="1.0" standalone="no"?>
<!DOCTYPE svg PUBLIC "-//W3C//DTD SVG 20010904//EN"
 "http://www.w3.org/TR/2001/REC-SVG-20010904/DTD/svg10.dtd">
<svg version="1.0" xmlns="http://www.w3.org/2000/svg"
 width="512.000000pt" height="512.000000pt" viewBox="0 0 512.000000 512.000000"
 preserveAspectRatio="xMidYMid meet">

<g transform="translate(0.000000,512.000000) scale(0.100000,-0.100000)"
fill="#ffffff" stroke="none">
<path d="M2425 5041 c-265 -44 -505 -193 -644 -400 -381 -564 -82 -1319 581
-1467 46 -11 120 -17 198 -17 254 -1 467 85 651 261 363 346 395 893 77 1289
-112 139 -315 267 -498 313 -94 24 -281 34 -365 21z m330 -197 c290 -78 508
-316 560 -611 18 -98 18 -168 1 -263 -54 -299 -264 -527 -562 -611 -110 -32
-276 -31 -388 0 -307 85 -521 327 -567 640 -51 356 165 707 510 827 38 13 93
28 122 33 73 13 251 5 324 -15z"/>
<path d="M2506 4679 c-22 -17 -26 -28 -26 -70 0 -50 0 -50 -46 -70 -69 -29
-116 -71 -149 -131 -24 -44 -30 -65 -29 -118 0 -78 23 -129 85 -184 54 -50
104 -71 214 -91 103 -19 139 -37 159 -78 17 -36 12 -58 -20 -88 -20 -19 -39
-24 -95 -27 -113 -7 -187 33 -204 107 -8 36 -43 69 -82 77 -45 9 -97 -39 -96
-88 3 -95 98 -215 204 -255 l54 -20 5 -53 c7 -61 34 -90 85 -90 48 0 75 27 89
89 11 51 13 53 62 70 156 52 229 215 160 355 -49 100 -119 144 -277 176 -111
22 -148 41 -163 84 -19 53 50 110 135 110 61 0 109 -31 143 -94 32 -58 59 -80
101 -80 47 1 85 41 85 89 0 69 -108 202 -191 236 -45 19 -47 21 -53 69 -7 64
-36 96 -86 96 -23 0 -48 -8 -64 -21z"/>
<path d="M1156 3146 c-50 -19 -83 -43 -116 -87 -15 -19 -191 -367 -391 -774
l-364 -740 0 -65 c1 -76 25 -131 77 -175 56 -48 374 -198 429 -203 69 -6 132
14 184 60 l45 40 10 -28 c6 -15 24 -47 40 -70 l29 -44 -48 -70 c-107 -155
-105 -310 6 -439 46 -55 115 -88 208 -102 l75 -11 20 -46 c45 -100 111 -154
215 -173 71 -13 166 1 244 37 29 13 57 24 61 24 5 0 13 -13 18 -29 14 -40 78
-109 122 -131 88 -45 235 -48 354 -8 55 18 159 78 171 99 3 5 68 -23 143 -62
161 -82 220 -94 316 -64 68 22 142 84 176 148 l24 44 51 -23 c121 -53 263 -57
360 -10 64 32 114 86 147 161 l23 53 66 4 c124 9 219 72 267 177 21 46 24 64
20 130 -6 94 -31 153 -94 221 l-47 50 36 39 c20 22 43 55 53 73 9 18 18 35 20
37 2 2 21 -12 44 -32 49 -42 112 -61 180 -55 56 6 371 154 428 203 52 43 76
99 77 175 l0 65 -367 745 c-202 410 -381 762 -398 783 -46 55 -102 81 -176 82
-58 0 -73 -6 -250 -93 -104 -52 -200 -103 -213 -115 -38 -35 -71 -115 -71
-174 0 -29 -1 -53 -2 -53 -2 0 -25 7 -53 16 -140 42 -303 38 -511 -14 l-109
-27 -125 17 c-69 9 -204 20 -300 24 -203 8 -314 -3 -438 -45 -81 -27 -83 -27
-77 -7 17 54 17 128 0 172 -30 80 -60 103 -261 202 -206 101 -256 114 -328 88z
m235 -242 c167 -82 189 -97 189 -126 0 -24 -716 -1479 -733 -1490 -24 -15 -48
-7 -211 73 -132 64 -167 86 -172 104 -4 18 83 204 355 757 199 403 369 739
378 746 9 6 22 12 29 12 6 0 81 -34 165 -76z m2532 64 c9 -7 179 -343 378
-746 280 -568 360 -739 355 -757 -5 -20 -37 -40 -172 -105 -164 -79 -187 -87
-211 -72 -17 11 -733 1466 -733 1490 0 10 8 26 18 35 21 19 319 167 336 167 7
0 20 -6 29 -12z m-748 -388 c145 -21 265 -107 370 -265 79 -118 413 -808 421
-868 l7 -48 -154 94 c-85 52 -364 223 -620 381 -336 206 -475 286 -496 286
-16 0 -65 -9 -109 -20 -213 -55 -464 -77 -537 -46 -35 14 -67 54 -67 83 0 28
28 61 68 82 75 38 700 270 782 290 70 17 176 34 250 40 8 0 47 -4 85 -9z
m-876 -30 c-8 -5 -71 -30 -138 -55 -168 -62 -227 -93 -277 -142 -129 -130 -78
-343 101 -425 99 -44 335 -36 583 21 l120 27 611 -375 c408 -251 611 -381 609
-391 -2 -8 -24 -27 -49 -42 l-45 -29 -320 157 c-759 372 -848 414 -876 414
-69 0 -106 -100 -55 -148 18 -17 1044 -526 1237 -614 103 -47 160 -117 160
-196 0 -76 -64 -118 -164 -110 -45 4 -121 44 -661 348 -335 189 -624 349 -642
356 -41 18 -88 2 -108 -37 -22 -41 -19 -65 13 -98 15 -16 293 -179 617 -361
325 -183 592 -333 594 -336 8 -8 -22 -63 -50 -90 -28 -27 -36 -29 -107 -28
-83 0 -160 27 -229 80 -27 20 -791 451 -915 516 -32 17 -43 18 -73 8 -36 -12
-65 -51 -65 -89 0 -11 10 -32 23 -46 12 -14 206 -129 432 -255 225 -125 411
-233 413 -239 7 -20 -32 -84 -62 -103 -60 -37 -82 -28 -542 222 -236 128 -586
318 -779 422 -381 206 -406 225 -463 338 -24 49 -27 66 -27 155 l0 100 179
367 c110 224 198 391 227 430 94 126 229 208 399 243 75 15 354 20 329 5z
m-924 -1690 c44 -24 81 -44 83 -45 1 -1 -21 -43 -50 -93 -55 -97 -69 -107
-130 -96 -55 11 -87 32 -108 74 -32 63 -26 103 32 193 l30 47 32 -18 c17 -11
67 -39 111 -62z m399 -216 c78 -42 142 -78 144 -79 2 -2 -4 -17 -12 -34 -19
-36 -138 -109 -211 -128 -94 -25 -149 1 -178 82 l-14 40 55 98 c31 53 60 97
66 97 5 0 72 -34 150 -76z m421 -229 c57 -30 122 -66 146 -80 l43 -24 -44 -20
c-60 -26 -154 -36 -208 -22 -47 13 -70 40 -79 94 -6 39 13 107 29 107 6 0 57
-25 113 -55z"/>
</g>
</svg>
