<?xml version="1.0" standalone="no"?>
<!DOCTYPE svg PUBLIC "-//W3C//DTD SVG 20010904//EN"
 "http://www.w3.org/TR/2001/REC-SVG-20010904/DTD/svg10.dtd">
<svg version="1.0" xmlns="http://www.w3.org/2000/svg"
 width="512.000000pt" height="512.000000pt" viewBox="0 0 512.000000 512.000000"
 preserveAspectRatio="xMidYMid meet">

<g transform="translate(0.000000,512.000000) scale(0.100000,-0.100000)"
fill="#ffffff" stroke="none">
<path d="M4070 4914 c-212 -55 -946 -218 -2108 -469 -980 -212 -1791 -389
-1802 -395 -34 -18 -60 -61 -60 -101 0 -48 60 -357 211 -1093 l119 -578 0
-667 0 -667 -71 -164 c-58 -134 -70 -172 -66 -202 4 -29 38 -80 150 -225 80
-103 154 -196 165 -206 27 -25 92 -33 124 -16 13 8 205 137 425 287 400 272
402 273 695 533 161 143 326 297 367 342 41 45 96 106 122 135 l48 53 38 -25
c68 -47 90 -40 336 96 221 122 222 123 352 150 71 15 258 54 415 87 l285 60
569 283 c337 168 583 296 602 314 29 27 34 38 34 76 0 80 -98 728 -164 1090
-56 301 -84 423 -194 834 -71 264 -134 490 -141 502 -15 28 -62 52 -98 51 -15
0 -174 -38 -353 -85z m270 -178 c0 -3 51 -197 114 -433 92 -341 126 -491 171
-738 77 -423 155 -963 141 -974 -6 -5 -238 -122 -516 -261 l-505 -253 -425
-90 -424 -90 -177 -98 c-98 -55 -184 -102 -193 -105 -9 -3 -33 7 -58 25 -52
37 -98 48 -136 32 -16 -7 -99 -91 -186 -187 -118 -130 -231 -239 -445 -430
-279 -247 -297 -261 -640 -495 -194 -133 -356 -237 -360 -232 -51 59 -151 195
-151 205 0 7 27 76 60 153 l60 140 0 689 0 689 -91 441 c-105 510 -229 1130
-226 1131 1 1 130 29 287 63 2510 541 3206 694 3425 751 288 76 275 73 275 67z"/>
</g>
</svg>
