<?xml version="1.0" standalone="no"?>
<!DOCTYPE svg PUBLIC "-//W3C//DTD SVG 20010904//EN"
 "http://www.w3.org/TR/2001/REC-SVG-20010904/DTD/svg10.dtd">
<svg version="1.0" xmlns="http://www.w3.org/2000/svg"
 width="512.000000pt" height="512.000000pt" viewBox="0 0 512.000000 512.000000"
 preserveAspectRatio="xMidYMid meet">

<g transform="translate(0.000000,512.000000) scale(0.100000,-0.100000)"
fill="#ffffff" stroke="none">
<path d="M2503 5106 c-42 -19 -51 -35 -126 -221 -328 -811 -470 -1704 -392
-2465 8 -74 17 -155 21 -180 l7 -45 -114 110 c-136 132 -223 207 -355 307
-370 279 -794 508 -1250 673 -157 57 -202 59 -249 12 -50 -50 -53 -89 -15
-178 130 -307 422 -763 694 -1084 111 -130 355 -374 470 -468 55 -45 111 -91
124 -103 l25 -21 -94 -12 c-268 -34 -545 -112 -809 -228 -144 -63 -180 -99
-180 -181 0 -66 32 -101 146 -157 325 -161 727 -254 1116 -258 87 -1 158 -4
158 -7 0 -3 -16 -43 -35 -88 -40 -95 -80 -221 -99 -316 -17 -79 -9 -120 32
-159 43 -41 87 -44 184 -12 229 76 398 183 581 366 l127 128 0 -217 c0 -187 2
-222 18 -252 33 -66 111 -66 144 0 16 30 18 65 18 252 l0 217 128 -128 c139
-140 254 -223 406 -295 130 -62 250 -100 294 -93 43 8 89 50 101 94 16 55 -32
243 -105 416 -19 45 -34 82 -34 83 0 0 84 4 188 7 357 12 667 79 986 211 209
87 246 118 246 206 0 54 -27 102 -72 130 -48 29 -237 108 -364 151 -154 53
-292 86 -483 118 l-163 27 91 72 c436 349 821 829 1124 1402 36 69 80 158 97
199 38 89 35 128 -15 178 -47 47 -92 45 -249 -12 -454 -164 -881 -394 -1251
-674 -136 -103 -229 -184 -363 -315 -86 -84 -112 -105 -108 -86 41 195 59 669
36 971 -24 311 -82 658 -161 970 -97 380 -275 873 -338 933 -35 33 -93 42
-138 22z m119 -383 c329 -865 441 -1801 307 -2563 -41 -232 -114 -480 -200
-673 -45 -101 -158 -307 -169 -307 -11 0 -124 206 -169 307 -320 719 -340
1706 -57 2733 63 229 209 650 226 650 3 0 31 -66 62 -147z m-2240 -1654 c304
-120 648 -304 912 -487 265 -183 554 -445 718 -652 74 -92 77 -99 131 -260 31
-91 76 -210 100 -265 25 -55 44 -101 42 -103 -1 -1 -36 10 -76 26 -140 56
-303 94 -468 111 l-102 11 -102 69 c-424 290 -815 723 -1134 1256 -88 148
-196 355 -185 355 6 0 79 -27 164 -61z m4463 -66 c-323 -620 -782 -1158 -1260
-1478 -108 -72 -111 -74 -190 -80 -155 -13 -364 -62 -500 -119 -33 -13 -61
-23 -63 -21 -2 2 6 22 18 46 38 74 110 260 144 372 29 94 40 117 97 190 88
113 361 385 494 490 336 268 724 492 1140 661 88 36 166 65 173 65 8 1 -12
-49 -53 -126z m-3110 -1733 c127 -14 235 -37 340 -72 90 -30 278 -121 324
-157 l25 -19 -55 -35 c-211 -135 -461 -205 -764 -214 -343 -11 -714 64 -1061
213 l-88 38 62 28 c247 110 570 194 852 221 79 8 281 6 365 -3z m2195 -20
c222 -37 477 -113 679 -202 l55 -24 -90 -38 c-126 -55 -358 -130 -495 -160
-360 -80 -722 -73 -1022 20 -92 29 -287 121 -331 157 l-29 23 51 33 c170 109
395 185 626 211 119 14 417 3 556 -20z m-1541 -515 c-101 -215 -335 -413 -619
-525 l-50 -20 6 28 c19 79 70 219 113 308 l49 101 78 18 c110 24 262 79 363
130 47 24 87 39 89 35 2 -4 -11 -38 -29 -75z m411 33 c105 -51 235 -97 351
-122 l76 -17 46 -92 c41 -83 103 -248 121 -319 8 -33 11 -34 -130 32 -242 113
-436 286 -533 478 -29 57 -43 95 -34 90 5 -2 51 -24 103 -50z"/>
</g>
</svg>
