<?xml version="1.0" standalone="no"?>
<!DOCTYPE svg PUBLIC "-//W3C//DTD SVG 20010904//EN"
 "http://www.w3.org/TR/2001/REC-SVG-20010904/DTD/svg10.dtd">
<svg version="1.0" xmlns="http://www.w3.org/2000/svg"
 width="64.000000pt" height="64.000000pt" viewBox="0 0 64.000000 64.000000"
 preserveAspectRatio="xMidYMid meet">

<g transform="translate(0.000000,64.000000) scale(0.100000,-0.100000)"
fill="#f66205" stroke="none">
<path d="M320 594 c0 -8 5 -12 10 -9 6 4 8 11 5 16 -9 14 -15 11 -15 -7z"/>
<path d="M222 561 c4 -13 18 -16 19 -4 0 4 -5 9 -11 12 -7 2 -11 -2 -8 -8z"/>
<path d="M410 554 c0 -8 5 -12 10 -9 6 3 10 10 10 16 0 5 -4 9 -10 9 -5 0 -10
-7 -10 -16z"/>
<path d="M261 539 c-33 -31 -44 -66 -31 -104 15 -44 41 -66 87 -72 77 -10 135
76 99 145 -20 39 -44 52 -93 52 -26 0 -47 -7 -62 -21z m118 -16 c11 -10 24
-32 27 -50 5 -27 1 -37 -24 -63 -17 -17 -41 -30 -55 -30 -32 0 -73 33 -81 65
-7 27 15 80 36 88 28 12 77 6 97 -10z"/>
<path d="M180 460 c0 -5 7 -10 15 -10 8 0 15 5 15 10 0 6 -7 10 -15 10 -8 0
-15 -4 -15 -10z"/>
<path d="M445 460 c3 -5 10 -10 16 -10 5 0 9 5 9 10 0 6 -7 10 -16 10 -8 0
-12 -4 -9 -10z"/>
<path d="M220 370 c0 -5 4 -10 9 -10 6 0 13 5 16 10 3 6 -1 10 -9 10 -9 0 -16
-4 -16 -10z"/>
<path d="M405 370 c3 -5 10 -10 16 -10 5 0 9 5 9 10 0 6 -7 10 -16 10 -8 0
-12 -4 -9 -10z"/>
<path d="M42 359 c2 -6 30 -21 63 -34 73 -30 159 -88 186 -127 20 -28 20 -30
4 -64 l-17 -36 -18 29 c-37 62 -166 163 -207 163 -26 0 -11 -17 34 -39 26 -13
64 -36 85 -52 46 -37 101 -118 94 -141 -2 -10 -1 -20 4 -23 4 -2 17 22 29 54
36 99 131 189 251 237 65 27 82 51 20 29 -74 -26 -156 -75 -200 -120 l-43 -44
-58 53 c-57 53 -132 97 -197 116 -22 6 -32 6 -30 -1z"/>
<path d="M320 336 c0 -9 5 -16 10 -16 6 0 10 4 10 9 0 6 -4 13 -10 16 -5 3
-10 -1 -10 -9z"/>
<path d="M544 264 c-27 -14 -69 -44 -92 -67 -61 -58 -123 -168 -94 -167 4 1
17 22 29 48 29 61 101 133 169 169 29 15 54 31 54 36 0 12 -15 8 -66 -19z"/>
<path d="M554 178 c-53 -36 -114 -110 -113 -136 0 -13 4 -11 17 8 22 33 100
112 132 132 14 9 22 19 19 22 -3 4 -28 -8 -55 -26z"/>
<path d="M60 182 c32 -21 111 -100 132 -132 12 -18 17 -20 17 -9 2 41 -117
160 -158 158 -11 0 -9 -5 9 -17z"/>
<path d="M80 71 c25 -21 47 -34 49 -28 5 14 -55 67 -77 67 -11 0 -2 -13 28
-39z"/>
<path d="M551 82 c-19 -15 -32 -33 -30 -39 2 -6 24 7 49 28 51 44 33 55 -19
11z"/>
</g>
</svg>
