<?xml version="1.0" standalone="no"?>
<!DOCTYPE svg PUBLIC "-//W3C//DTD SVG 20010904//EN"
 "http://www.w3.org/TR/2001/REC-SVG-20010904/DTD/svg10.dtd">
<svg version="1.0" xmlns="http://www.w3.org/2000/svg"
 width="64.000000pt" height="64.000000pt" viewBox="0 0 512.000000 512.000000"
 preserveAspectRatio="xMidYMid meet">

<g transform="translate(0.000000,512.000000) scale(0.100000,-0.100000)"
fill="#f66205" stroke="none">
<path d="M3102 4397 c-337 -337 -432 -438 -432 -457 0 -18 34 -58 132 -157
l132 -133 -39 -40 -39 -40 -141 140 c-78 77 -148 140 -155 140 -8 0 -77 -63
-154 -140 l-141 -140 -491 491 c-438 437 -494 490 -515 484 -13 -4 -93 -75
-176 -159 -128 -127 -153 -157 -153 -182 0 -25 59 -88 433 -462 337 -337 438
-432 457 -432 18 0 58 34 157 132 l133 132 40 -39 40 -39 -270 -271 c-148
-149 -270 -278 -270 -286 0 -8 7 -25 16 -37 12 -18 25 -22 65 -22 32 0 49 -4
49 -12 0 -7 -16 -109 -35 -227 l-34 -215 -251 -251 c-149 -150 -250 -258 -250
-270 0 -27 298 -325 333 -332 16 -3 27 -12 26 -22 0 -9 -30 -205 -68 -436
l-67 -420 -94 -3 c-52 -1 -100 -8 -107 -14 -20 -17 -19 -361 2 -378 22 -18
2628 -18 2650 0 12 10 15 44 15 184 0 94 -5 178 -10 186 -7 11 -35 16 -107 20
l-98 5 -122 760 c-67 418 -122 767 -123 775 0 8 89 -74 198 -183 109 -108 204
-197 212 -197 7 0 87 73 177 162 120 119 163 169 163 186 0 18 -151 177 -630
660 l-629 637 489 490 c310 310 490 498 490 510 0 12 -62 82 -158 177 -133
133 -162 158 -187 158 -26 0 -87 -57 -463 -433z m503 273 l29 -30 -104 -105
-105 -105 -35 35 -35 35 100 100 c55 55 104 100 110 100 6 0 24 -14 40 -30z
m137 -137 c15 -15 28 -32 28 -38 0 -6 -45 -55 -100 -110 l-100 -99 -30 29
c-16 16 -30 33 -30 39 0 10 190 206 199 206 3 0 18 -12 33 -27z m-424 -146
l32 -33 -103 -102 -103 -102 -34 35 -34 35 99 100 c55 55 102 100 105 100 3 0
20 -15 38 -33z m-1943 -77 l99 -100 -29 -30 c-16 -16 -34 -30 -40 -30 -6 0
-55 45 -110 100 l-99 100 29 30 c16 16 34 30 40 30 6 0 55 -45 110 -100z
m2018 -202 l-103 -102 -35 34 -35 34 102 103 103 103 35 -35 35 -35 -102 -102z
m-2165 59 l102 -103 -35 -34 -35 -34 -100 99 c-55 55 -100 104 -100 109 0 11
50 66 60 66 3 0 51 -46 108 -103z m1810 -60 l32 -33 -103 -102 -103 -102 -34
35 -34 35 99 100 c55 55 102 100 105 100 3 0 20 -15 38 -33z m-1383 -77 l99
-100 -34 -35 -34 -35 -103 102 -103 102 32 33 c18 18 35 33 38 33 3 0 50 -45
105 -100z m1458 -202 l-103 -102 -35 34 -35 34 102 103 103 103 35 -35 35 -35
-102 -102z m-1538 -78 l-35 -35 -102 102 -102 103 34 35 34 35 103 -102 103
-103 -35 -35z m360 0 l99 -100 -34 -35 -34 -35 -103 102 -103 102 32 33 c18
18 35 33 38 33 3 0 50 -45 105 -100z m-80 -280 l-35 -35 -102 102 -102 103 34
35 34 35 103 -102 103 -103 -35 -35z m818 132 l107 -107 -67 -67 c-56 -54 -72
-64 -88 -58 -11 5 -40 9 -65 9 -25 0 -54 -4 -65 -9 -16 -6 -32 4 -88 58 l-67
67 107 107 c59 60 110 108 113 108 3 0 54 -48 113 -108z m-284 -339 c-11 -29
-11 -101 1 -128 6 -16 -4 -32 -58 -87 l-66 -68 -213 0 c-117 0 -213 3 -213 7
0 4 96 103 212 220 l212 213 67 -66 c60 -60 66 -70 58 -91z m831 -220 c0 -6
-14 -23 -31 -37 -30 -25 -34 -26 -183 -26 l-152 0 -66 68 c-54 55 -64 71 -58
87 12 28 12 117 0 135 -7 12 6 31 58 83 l67 67 182 -182 c101 -101 183 -188
183 -195z m-609 208 c35 -36 37 -61 6 -97 -17 -20 -33 -27 -57 -27 -37 0 -80
40 -80 74 0 27 53 79 80 79 12 0 35 -13 51 -29z m-48 -230 c23 0 51 4 62 9 14
5 26 2 43 -13 12 -11 22 -24 22 -29 0 -5 -58 -8 -130 -7 -71 0 -130 4 -130 7
0 3 10 16 21 28 17 18 26 21 46 13 13 -5 43 -9 66 -8z m842 -161 l99 -100 -34
-35 -34 -35 -103 102 -103 102 32 33 c18 18 35 33 38 33 3 0 50 -45 105 -100z
m-1400 -140 c-87 -87 -160 -158 -161 -157 -2 2 8 70 21 152 14 83 25 153 25
158 0 4 62 7 137 7 l138 0 -160 -160z m1052 -92 l251 -253 21 -126 c12 -70 21
-132 21 -138 0 -7 -39 -11 -120 -11 -107 0 -122 -2 -140 -20 -11 -11 -20 -27
-20 -35 0 -8 9 -24 20 -35 18 -18 33 -20 149 -20 l129 0 6 -27 c3 -16 49 -298
101 -628 52 -330 97 -610 100 -623 l5 -22 -329 0 -330 0 -3 283 c-3 282 -3
282 -30 339 -37 79 -98 142 -177 181 -58 28 -75 32 -151 32 -76 0 -93 -4 -151
-32 -79 -39 -140 -102 -177 -181 -26 -54 -27 -66 -30 -244 l-4 -188 -74 0
c-61 0 -78 -4 -94 -20 -11 -11 -20 -27 -20 -35 0 -8 9 -24 20 -35 16 -16 33
-20 95 -20 l75 0 0 -40 0 -40 -331 0 -331 0 6 27 c3 16 20 113 36 217 17 105
33 192 36 195 3 3 62 7 132 8 106 2 129 6 140 20 16 23 15 43 -5 65 -14 15
-32 18 -135 18 -65 0 -118 2 -118 4 0 3 16 103 35 223 l36 218 374 375 c290
290 375 381 375 400 0 18 -34 59 -132 157 l-133 133 65 65 64 65 246 0 245 0
252 -252z m-7 244 c0 -5 -9 -17 -20 -27 -20 -18 -21 -18 -48 8 l-27 27 48 0
c26 0 47 -4 47 -8z m275 -292 l-35 -35 -102 102 -102 103 34 35 34 35 103
-102 103 -103 -35 -35z m360 0 l99 -100 -34 -35 -34 -35 -103 102 -103 102 32
33 c18 18 35 33 38 33 3 0 50 -45 105 -100z m-1537 57 l32 -33 -103 -102 -103
-102 -34 35 -34 35 99 100 c55 55 102 100 105 100 3 0 20 -15 38 -33z m1457
-337 l-35 -35 -102 102 -102 103 34 35 34 35 103 -102 103 -103 -35 -35z
m-1382 58 l-103 -102 -35 34 -35 34 102 103 103 103 35 -35 35 -35 -102 -102z
m1741 -57 c106 -106 107 -110 57 -156 l-22 -19 -104 104 -105 104 32 33 c18
18 35 33 38 33 3 0 50 -44 104 -99z m-2096 56 l32 -33 -103 -102 -103 -102
-34 35 -34 35 99 100 c55 55 102 100 105 100 3 0 20 -15 38 -33z m75 -279
l-103 -102 -35 34 -35 34 102 103 103 103 35 -35 35 -35 -102 -102z m1882 72
l99 -100 -29 -30 c-16 -16 -34 -30 -40 -30 -6 0 -55 45 -110 100 l-99 100 29
30 c16 16 34 30 40 30 6 0 55 -45 110 -100z m-2237 -73 l32 -33 -105 -104
-104 -104 -22 19 c-50 46 -49 50 57 156 54 55 101 99 104 99 3 0 20 -15 38
-33z m77 -277 c-55 -55 -104 -100 -110 -100 -6 0 -24 14 -40 30 l-29 30 104
105 105 105 35 -35 35 -35 -100 -100z m1001 -404 c59 -27 116 -90 132 -145 8
-25 12 -130 12 -300 l0 -261 -250 0 -250 0 0 268 c0 247 2 270 21 312 59 130
207 186 335 126z m1129 -908 l0 -93 -1235 0 -1235 0 -3 84 c-2 46 -1 89 1 95
3 8 359 10 1238 9 l1234 -3 0 -92z"/>
<path d="M2566 2644 c-23 -22 -20 -60 6 -78 26 -18 189 -23 231 -7 33 13 43
46 23 76 -16 24 -20 25 -131 25 -90 0 -117 -3 -129 -16z"/>
<path d="M2455 2321 c-51 -23 -121 -102 -135 -150 -47 -169 71 -331 240 -331
104 0 211 76 238 169 18 57 14 140 -7 186 -23 50 -84 109 -133 130 -51 21
-153 19 -203 -4z m152 -92 c103 -38 132 -176 53 -243 -62 -52 -138 -52 -200 0
-115 97 5 297 147 243z"/>
<path d="M2880 1720 c-11 -11 -20 -27 -20 -35 0 -8 9 -24 20 -35 17 -17 33
-20 123 -20 113 0 147 13 147 55 0 46 -22 55 -141 55 -96 0 -111 -2 -129 -20z"/>
<path d="M1846 1554 c-19 -18 -20 -38 -6 -65 10 -17 22 -19 130 -19 125 0 150
8 150 50 0 41 -25 50 -145 50 -90 0 -117 -3 -129 -16z"/>
<path d="M3087 1042 c-22 -24 -21 -45 2 -66 15 -14 37 -16 136 -14 132 3 148
11 129 65 l-9 28 -121 3 c-107 2 -122 0 -137 -16z"/>
</g>
</svg>
